<svg xmlns="http://www.w3.org/2000/svg" xmlns:xlink="http://www.w3.org/1999/xlink" width="1080" zoomAndPan="magnify" viewBox="0 0 810 809.999993" height="1080" preserveAspectRatio="xMidYMid meet" version="1.0"><defs><filter x="0%" y="0%" width="100%" height="100%" id="246ab4890e"><feColorMatrix values="0 0 0 0 1 0 0 0 0 1 0 0 0 0 1 0 0 0 1 0" color-interpolation-filters="sRGB"/></filter><g/><mask id="488af0c566"><g filter="url(#246ab4890e)"><rect x="-81" width="972" fill="#000000" y="-80.999999" height="971.999992" fill-opacity="0.55"/></g></mask><clipPath id="6766a6ba92"><path d="M 0.398438 1.113281 L 207.761719 1.113281 L 207.761719 104.042969 L 0.398438 104.042969 Z M 0.398438 1.113281 " clip-rule="nonzero"/></clipPath><clipPath id="4a11031a05"><rect x="0" width="208" y="0" height="216"/></clipPath><clipPath id="fa023b28c3"><path d="M 189.648438 323.191406 L 270.167969 323.191406 L 270.167969 486.714844 L 189.648438 486.714844 Z M 189.648438 323.191406 " clip-rule="nonzero"/></clipPath><clipPath id="c2fb5f59aa"><path d="M 111.953125 323.285156 L 190.8125 323.285156 L 190.8125 398.75 L 111.953125 398.75 Z M 111.953125 323.285156 " clip-rule="nonzero"/></clipPath><clipPath id="89d11946d5"><path d="M 54.746094 291.28125 L 196.6875 291.28125 L 196.6875 361.007812 L 54.746094 361.007812 Z M 54.746094 291.28125 " clip-rule="nonzero"/></clipPath><clipPath id="1232a8b680"><path d="M 54.785156 360.058594 L 118.699219 360.058594 L 118.699219 395.753906 L 54.785156 395.753906 Z M 54.785156 360.058594 " clip-rule="nonzero"/></clipPath><clipPath id="07507fe13f"><path d="M 21.460938 387.867188 L 196.605469 387.867188 L 196.605469 519.019531 L 21.460938 519.019531 Z M 21.460938 387.867188 " clip-rule="nonzero"/></clipPath></defs><g mask="url(#488af0c566)"><g transform="matrix(1, 0, 0, 1, 8, 294)"><g clip-path="url(#4a11031a05)"><g clip-path="url(#6766a6ba92)"><path fill="#e3b7a1" d="M 104.230469 210.898438 C 102.640625 211.945312 100.921875 212.824219 99.121094 213.496094 C 92.105469 216.15625 84.269531 215.796875 77.226562 213.496094 C 69.683594 211.027344 62.878906 206.292969 57.890625 200.132812 C 55.839844 197.597656 54.101562 194.855469 52.714844 191.898438 C 44.628906 192.046875 36.988281 189.554688 30.933594 184.109375 C 24.964844 178.722656 21.46875 171.28125 19.980469 163.46875 C 19.667969 161.730469 19.433594 159.992188 19.289062 158.234375 C 18.847656 158.109375 18.429688 157.980469 18.011719 157.832031 C -7.984375 149.242188 -2.625 115.5 23.101562 111.898438 C 23.355469 111.855469 23.601562 111.855469 23.855469 111.855469 L 102.765625 111.855469 L 102.765625 99.707031 C 102.765625 97.671875 104.421875 95.996094 106.453125 95.996094 L 184.613281 95.996094 C 184.820312 95.976562 185.03125 95.976562 185.242188 95.976562 C 188.65625 96.121094 192.199219 95.472656 194.753906 93.019531 C 197.457031 90.441406 198.523438 86.507812 198.753906 82.902344 C 198.902344 80.328125 198.710938 77.769531 198.105469 75.257812 C 196.953125 70.398438 194.359375 66.042969 190.527344 62.796875 C 186.734375 59.59375 182.042969 57.75 177.078125 57.429688 L 177.011719 57.429688 C 174.523438 57.265625 172.027344 57.515625 169.597656 58.101562 C 165.453125 59.066406 161.242188 60.949219 158.097656 63.882812 C 156.421875 65.429688 154.914062 67.441406 154.347656 69.703125 C 153.847656 71.628906 154.117188 73.515625 155.0625 75.273438 C 156.316406 77.640625 158.601562 79.546875 160.84375 80.953125 C 162.808594 82.167969 163.417969 84.808594 162.183594 86.777344 C 160.96875 88.746094 158.328125 89.355469 156.359375 88.117188 C 152.820312 85.898438 149.59375 82.984375 147.605469 79.28125 C 145.65625 75.636719 145.132812 71.589844 146.160156 67.589844 C 147.058594 64.007812 149.136719 60.84375 151.730469 58.265625 C 144.1875 49.34375 144.316406 39.332031 155.1875 31.871094 C 157.109375 30.550781 159.753906 31.054688 161.074219 32.984375 C 162.394531 34.910156 161.890625 37.550781 159.960938 38.871094 C 153.574219 43.226562 154.285156 48.40625 158.582031 53.261719 C 161.429688 51.714844 164.492188 50.605469 167.628906 49.851562 C 169.707031 49.347656 171.839844 49.050781 173.976562 48.949219 C 175.085938 41.949219 172.824219 35.246094 167.1875 30.597656 C 164.84375 28.675781 162.078125 27.265625 159.144531 26.496094 C 156.210938 25.699219 153.132812 25.574219 150.15625 26.140625 C 140.308594 28.066406 135.007812 36.90625 132.808594 46 C 132.265625 48.261719 129.960938 49.664062 127.699219 49.121094 C 125.433594 48.574219 124.03125 46.273438 124.574219 44.007812 C 126.855469 34.582031 131.757812 25.761719 140.222656 20.925781 C 132.410156 12.464844 121.875 9.613281 110.835938 12.273438 C 112.78125 15.667969 113.644531 19.628906 113.582031 23.589844 C 113.515625 26.585938 112.933594 29.578125 111.902344 32.386719 C 111.273438 34.085938 110.480469 35.742188 109.535156 37.289062 C 109.789062 41 111.191406 44.890625 113.390625 47.824219 C 118.671875 54.78125 127.949219 56.203125 136.140625 55.828125 C 138.464844 55.703125 140.457031 57.527344 140.5625 59.851562 C 140.6875 62.175781 138.863281 64.164062 136.539062 64.269531 C 130.992188 64.546875 125.207031 64.125 119.886719 62.347656 C 119.722656 76.171875 112.074219 85.886719 96.847656 87.296875 C 94.542969 87.503906 92.46875 85.785156 92.257812 83.460938 C 92.046875 81.160156 93.769531 79.082031 96.09375 78.871094 C 102.730469 78.265625 108.03125 75.480469 110.273438 68.925781 C 111.464844 65.488281 111.636719 61.34375 111.132812 57.675781 C 106.941406 54.34375 104.074219 49.90625 102.460938 44.875 C 99.046875 47.199219 95.066406 48.457031 90.8125 48.375 C 88.46875 48.332031 86.625 46.40625 86.667969 44.082031 C 86.710938 41.734375 88.636719 39.871094 90.980469 39.933594 C 95.003906 40 98.4375 37.945312 100.929688 34.886719 C 102.230469 33.296875 103.234375 31.429688 103.945312 29.503906 C 104.65625 27.558594 105.078125 25.503906 105.121094 23.429688 C 105.183594 19.679688 104.007812 16.015625 101.054688 13.5625 C 100.988281 13.519531 100.929688 13.476562 100.867188 13.417969 C 99.441406 12.285156 97.851562 11.382812 96.132812 10.734375 C 90.957031 8.765625 85.070312 9.167969 79.855469 10.882812 C 73.867188 12.851562 68.441406 16.621094 64.484375 21.519531 C 63.4375 22.800781 62.515625 24.140625 61.675781 25.566406 C 63.808594 26.066406 65.90625 26.757812 67.917969 27.640625 C 69.21875 28.207031 70.453125 28.855469 71.667969 29.585938 C 76.109375 28.289062 79.523438 25.207031 79.523438 20.183594 C 79.523438 17.835938 81.410156 15.929688 83.753906 15.929688 C 86.101562 15.929688 87.988281 17.835938 87.988281 20.183594 C 87.988281 27.261719 84.488281 32.542969 78.75 35.707031 C 79.460938 36.585938 80.113281 37.527344 80.675781 38.492188 C 84.089844 44.253906 84.675781 50.789062 83.441406 57.265625 C 82.792969 60.617188 81.707031 63.886719 80.320312 67.003906 C 79.398438 69.136719 76.886719 70.125 74.75 69.179688 C 72.613281 68.238281 71.648438 65.726562 72.570312 63.589844 C 73.683594 61.078125 74.605469 58.414062 75.128906 55.691406 C 75.964844 51.289062 75.714844 46.746094 73.390625 42.808594 C 71.378906 39.394531 68.113281 36.964844 64.507812 35.394531 C 62.519531 34.515625 60.421875 33.882812 58.285156 33.484375 C 57.261719 33.296875 56.210938 33.128906 55.164062 33.027344 C 55.078125 33.027344 55.019531 33.027344 54.933594 33.003906 C 54.199219 32.941406 53.445312 32.902344 52.691406 32.878906 C 46.742188 32.757812 41.085938 34.472656 36.621094 38.515625 C 32.035156 42.640625 29.457031 48.441406 28.328125 54.417969 C 28.183594 55.148438 28.054688 55.882812 27.972656 56.617188 C 30.320312 56.46875 32.6875 56.511719 35.03125 56.71875 C 39.828125 57.160156 44.6875 58.394531 49.066406 60.511719 C 52.167969 56.066406 51.832031 51.695312 46.742188 48.027344 C 44.835938 46.664062 44.417969 44.003906 45.777344 42.117188 C 47.140625 40.210938 49.777344 39.792969 51.664062 41.152344 C 56.734375 44.777344 60.335938 49.785156 59.644531 56.257812 C 59.3125 59.4375 57.96875 62.5 56.148438 65.160156 C 63.351562 71.460938 65.847656 80.21875 63.75 89.898438 C 63.269531 92.179688 61.003906 93.644531 58.722656 93.164062 C 56.460938 92.683594 54.976562 90.421875 55.476562 88.140625 C 57.15625 80.304688 54.621094 73.8125 47.917969 69.539062 C 47.832031 69.496094 47.773438 69.453125 47.6875 69.390625 C 47.539062 69.304688 47.394531 69.203125 47.226562 69.117188 C 43.351562 66.8125 38.722656 65.558594 34.257812 65.136719 C 29.757812 64.71875 24.980469 65.117188 20.664062 66.519531 C 3.140625 72.308594 7.515625 93.570312 24 95.980469 L 85.316406 95.980469 C 87.640625 95.980469 89.546875 97.886719 89.546875 100.210938 C 89.546875 102.535156 87.640625 104.445312 85.316406 104.445312 L 23.855469 104.445312 C 23.601562 104.464844 23.355469 104.445312 23.101562 104.402344 C -2.625 100.800781 -7.984375 67.050781 18.011719 58.464844 C 18.429688 58.339844 18.847656 58.191406 19.289062 58.066406 C 19.433594 56.328125 19.667969 54.566406 19.980469 52.828125 C 21.46875 45.015625 24.964844 37.582031 30.9375 32.195312 C 36.992188 26.75 44.636719 24.277344 52.71875 24.402344 C 54.101562 21.46875 55.84375 18.703125 57.898438 16.167969 C 62.882812 10.011719 69.691406 5.296875 77.234375 2.824219 C 84.269531 0.5 92.105469 0.144531 99.125 2.800781 C 100.925781 3.492188 102.644531 4.351562 104.234375 5.402344 C 109.808594 3.410156 116.152344 2.53125 121.976562 2.992188 C 133.015625 3.828125 141.960938 9.234375 148.664062 17.804688 C 152.851562 17.003906 157.167969 17.214844 161.296875 18.304688 C 165.402344 19.394531 169.253906 21.363281 172.542969 24.0625 C 180.359375 30.496094 183.792969 39.859375 182.414062 49.660156 C 187.417969 50.75 192.070312 53.015625 195.984375 56.34375 C 201.199219 60.742188 204.785156 66.691406 206.355469 73.3125 C 207.128906 76.621094 207.398438 80.011719 207.191406 83.40625 C 206.835938 89.25 204.910156 95.050781 200.589844 99.15625 C 196.546875 103.011719 191.308594 104.519531 185.820312 104.457031 L 110.160156 104.457031 L 110.160156 116.605469 C 110.160156 118.636719 108.480469 120.316406 106.449219 120.316406 L 24 120.316406 C 7.515625 122.746094 3.140625 144.007812 20.648438 149.789062 C 24.960938 151.210938 29.738281 151.589844 34.242188 151.167969 C 38.703125 150.75 43.332031 149.492188 47.210938 147.191406 C 47.378906 147.105469 47.523438 147.023438 47.667969 146.914062 C 47.753906 146.871094 47.816406 146.8125 47.902344 146.769531 C 54.601562 142.5 57.136719 136 55.460938 128.167969 C 54.960938 125.886719 56.445312 123.621094 58.707031 123.140625 C 60.988281 122.660156 63.253906 124.128906 63.734375 126.410156 C 65.824219 136.085938 63.335938 144.84375 56.128906 151.167969 C 57.953125 153.808594 59.292969 156.867188 59.628906 160.050781 C 60.320312 166.523438 56.71875 171.53125 51.648438 175.152344 C 49.761719 176.519531 47.125 176.097656 45.761719 174.1875 C 44.398438 172.300781 44.816406 169.664062 46.726562 168.28125 C 51.816406 164.636719 52.148438 160.257812 49.050781 155.796875 C 44.671875 157.910156 39.8125 159.148438 35.015625 159.585938 C 32.667969 159.820312 30.300781 159.863281 27.957031 159.691406 C 28.042969 160.421875 28.164062 161.15625 28.3125 161.890625 C 29.445312 167.859375 32.019531 173.683594 36.605469 177.808594 C 41.066406 181.832031 46.722656 183.546875 52.671875 183.421875 C 53.429688 183.421875 54.183594 183.359375 54.917969 183.296875 C 55.003906 183.296875 55.0625 183.277344 55.148438 183.277344 C 56.195312 183.171875 57.242188 183.023438 58.269531 182.816406 C 60.40625 182.417969 62.503906 181.792969 64.492188 180.910156 C 68.09375 179.339844 71.363281 176.90625 73.375 173.496094 C 75.699219 169.558594 75.949219 165.035156 75.109375 160.613281 C 74.585938 157.890625 73.664062 155.230469 72.554688 152.714844 C 71.632812 150.578125 72.597656 148.066406 74.734375 147.121094 C 76.867188 146.199219 79.382812 147.164062 80.304688 149.300781 C 81.683594 152.421875 82.773438 155.691406 83.425781 159.039062 C 84.660156 165.53125 84.074219 172.046875 80.660156 177.808594 C 80.09375 178.773438 79.445312 179.71875 78.734375 180.597656 C 84.472656 183.761719 87.96875 189.058594 87.96875 196.140625 C 87.96875 198.464844 86.082031 200.375 83.738281 200.375 C 81.390625 200.375 79.503906 198.464844 79.503906 196.140625 C 79.503906 191.09375 76.09375 188.015625 71.648438 186.738281 C 70.4375 187.449219 69.195312 188.101562 67.902344 188.664062 C 65.890625 189.542969 63.796875 190.230469 61.65625 190.753906 C 62.492188 192.15625 63.414062 193.519531 64.464844 194.800781 C 68.425781 199.679688 73.847656 203.449219 79.839844 205.421875 C 85.054688 207.140625 90.941406 207.535156 96.113281 205.566406 C 97.832031 204.917969 99.425781 204.035156 100.847656 202.886719 C 100.914062 202.84375 100.972656 202.785156 101.039062 202.742188 C 103.992188 200.308594 105.164062 196.625 105.101562 192.875 C 105.058594 190.820312 104.644531 188.75 103.925781 186.816406 C 103.214844 184.871094 102.207031 183.027344 100.914062 181.414062 C 98.421875 178.359375 94.984375 176.304688 90.964844 176.390625 C 88.617188 176.433594 86.691406 174.566406 86.648438 172.242188 C 86.605469 169.898438 88.449219 167.972656 90.796875 167.929688 C 95.050781 167.84375 99.03125 169.121094 102.445312 171.425781 C 104.054688 166.421875 106.925781 161.957031 111.113281 158.628906 C 111.617188 154.960938 111.449219 150.8125 110.257812 147.378906 C 108.015625 140.84375 102.714844 138.054688 96.074219 137.453125 C 93.75 137.21875 92.03125 135.167969 92.242188 132.839844 C 92.453125 130.539062 94.523438 128.796875 96.832031 129.007812 C 112.058594 130.410156 119.703125 140.152344 119.871094 153.976562 C 125.191406 152.199219 130.972656 151.757812 136.523438 152.03125 C 138.847656 152.15625 140.667969 154.125 140.546875 156.453125 C 140.441406 158.796875 138.453125 160.597656 136.125 160.496094 C 127.933594 160.097656 118.652344 161.523438 113.375 168.5 C 111.175781 171.410156 109.773438 175.308594 109.519531 179.011719 C 110.460938 180.5625 111.257812 182.21875 111.886719 183.914062 C 112.910156 186.742188 113.5 189.71875 113.5625 192.714844 C 113.628906 196.695312 112.765625 200.632812 110.820312 204.046875 C 121.855469 206.707031 132.394531 203.839844 140.207031 195.378906 C 131.746094 190.539062 126.84375 181.71875 124.558594 172.292969 C 124.015625 170.050781 125.417969 167.75 127.679688 167.203125 C 129.945312 166.636719 132.246094 168.039062 132.792969 170.304688 C 134.992188 179.394531 140.292969 188.234375 150.136719 190.164062 C 153.113281 190.75 156.195312 190.605469 159.125 189.828125 C 162.058594 189.050781 164.824219 187.628906 167.171875 185.703125 C 172.804688 181.070312 175.070312 174.371094 173.960938 167.355469 C 171.824219 167.25 169.6875 166.953125 167.613281 166.453125 C 164.46875 165.71875 161.414062 164.585938 158.566406 163.039062 C 154.273438 167.898438 153.558594 173.074219 159.945312 177.453125 C 161.871094 178.773438 162.378906 181.390625 161.054688 183.320312 C 159.734375 185.246094 157.097656 185.75 155.167969 184.429688 C 144.296875 176.992188 144.167969 166.960938 151.710938 158.035156 C 149.113281 155.457031 147.042969 152.296875 146.140625 148.710938 C 145.117188 144.710938 145.640625 140.667969 147.585938 137.023438 C 149.578125 133.3125 152.800781 130.402344 156.34375 128.207031 C 158.3125 126.96875 160.953125 127.574219 162.167969 129.546875 C 163.402344 131.515625 162.796875 134.136719 160.824219 135.371094 C 158.582031 136.773438 156.300781 138.660156 155.042969 141.027344 C 154.101562 142.785156 153.832031 144.671875 154.332031 146.621094 C 154.898438 148.863281 156.40625 150.875 158.082031 152.421875 C 161.222656 155.355469 165.433594 157.242188 169.582031 158.222656 C 172.011719 158.789062 174.503906 159.042969 176.996094 158.894531 L 177.058594 158.871094 C 182.027344 158.578125 186.71875 156.714844 190.507812 153.507812 C 194.34375 150.28125 196.941406 145.902344 198.089844 141.042969 C 198.699219 138.554688 198.886719 135.976562 198.738281 133.398438 C 198.507812 129.796875 197.4375 125.855469 194.738281 123.28125 C 192.179688 120.851562 188.644531 120.183594 185.226562 120.328125 C 185.015625 120.328125 184.804688 120.328125 184.59375 120.304688 L 126.9375 120.304688 C 124.613281 120.304688 122.707031 118.398438 122.707031 116.074219 C 122.707031 113.75 124.613281 111.839844 126.9375 111.839844 L 185.820312 111.839844 C 191.308594 111.777344 196.546875 113.285156 200.589844 117.140625 C 204.90625 121.246094 206.835938 127.070312 207.191406 132.894531 C 207.398438 136.285156 207.125 139.679688 206.355469 142.988281 C 204.785156 149.625 201.199219 155.554688 195.984375 159.957031 C 192.070312 163.289062 187.417969 165.570312 182.414062 166.660156 C 183.792969 176.441406 180.359375 185.804688 172.542969 192.234375 C 169.253906 194.9375 165.402344 196.90625 161.296875 197.992188 C 157.171875 199.105469 152.851562 199.292969 148.664062 198.496094 C 141.960938 207.0625 133.015625 212.464844 121.976562 213.324219 C 116.148438 213.765625 109.800781 212.886719 104.230469 210.898438 Z M 104.230469 210.898438 " fill-opacity="1" fill-rule="evenodd"/></g></g></g></g><g clip-path="url(#fa023b28c3)"><path fill="#da8b79" d="M 175.566406 480.847656 C 175.566406 484.054688 178.191406 486.683594 181.402344 486.683594 L 195.511719 486.683594 C 198.722656 486.683594 201.351562 484.054688 201.351562 480.847656 L 201.351562 474.785156 C 201.351562 471.578125 203.863281 468.179688 206.929688 467.234375 L 219.484375 462.0625 C 222.3125 460.546875 226.484375 461.160156 228.75 463.429688 L 233.042969 467.71875 C 235.3125 469.988281 239.027344 469.988281 241.296875 467.71875 L 251.273438 457.742188 C 253.542969 455.46875 253.542969 451.757812 251.273438 449.484375 L 246.984375 445.195312 C 244.714844 442.925781 244.101562 438.753906 245.621094 435.925781 L 250.789062 423.371094 C 251.734375 420.304688 255.132812 417.792969 258.34375 417.792969 L 264.402344 417.792969 C 267.613281 417.792969 270.238281 415.167969 270.238281 411.957031 L 270.238281 397.84375 C 270.238281 394.636719 267.613281 392.007812 264.402344 392.007812 L 258.34375 392.007812 C 255.132812 392.007812 251.734375 389.496094 250.789062 386.429688 L 245.621094 373.878906 C 244.101562 371.046875 244.714844 366.878906 246.988281 364.609375 L 251.277344 360.320312 C 253.546875 358.046875 253.546875 354.335938 251.277344 352.066406 L 241.296875 342.085938 C 239.027344 339.816406 235.3125 339.816406 233.042969 342.085938 L 228.753906 346.378906 C 226.484375 348.648438 222.3125 349.261719 219.484375 347.742188 L 206.929688 342.574219 C 203.863281 341.628906 201.351562 338.230469 201.351562 335.019531 L 201.351562 328.960938 C 201.351562 325.753906 198.726562 323.125 195.515625 323.125 L 181.402344 323.125 C 178.191406 323.125 175.566406 325.753906 175.566406 328.960938 L 175.566406 335.019531 C 175.566406 338.230469 173.054688 341.628906 169.988281 342.574219 L 157.429688 347.746094 C 154.605469 349.265625 150.429688 348.648438 148.164062 346.378906 L 143.871094 342.089844 C 141.601562 339.816406 137.886719 339.816406 135.617188 342.089844 L 125.640625 352.066406 C 123.371094 354.335938 123.371094 358.046875 125.640625 360.320312 L 129.933594 364.609375 C 132.199219 366.882812 132.816406 371.050781 131.296875 373.878906 L 126.125 386.433594 C 125.179688 389.5 121.785156 392.011719 118.570312 392.011719 L 112.511719 392.011719 C 109.300781 392.011719 106.675781 394.636719 106.675781 397.847656 L 106.675781 411.960938 C 106.675781 415.167969 109.300781 417.796875 112.511719 417.796875 L 118.574219 417.796875 C 121.785156 417.796875 125.179688 420.304688 126.125 423.375 L 131.296875 435.925781 C 132.816406 438.753906 132.203125 442.925781 129.933594 445.195312 L 125.640625 449.488281 C 123.371094 451.757812 123.371094 455.472656 125.640625 457.742188 L 135.617188 467.71875 C 137.886719 469.988281 141.601562 469.992188 143.871094 467.71875 L 148.164062 463.429688 C 150.433594 461.160156 154.605469 460.546875 157.433594 462.066406 L 169.988281 467.234375 C 173.054688 468.175781 175.566406 471.578125 175.566406 474.789062 Z M 154.8125 404.902344 C 154.8125 386.320312 169.875 371.257812 188.457031 371.257812 C 207.039062 371.257812 222.105469 386.320312 222.105469 404.902344 C 222.105469 423.484375 207.039062 438.546875 188.457031 438.546875 C 169.875 438.546875 154.8125 423.484375 154.8125 404.902344 Z M 154.8125 404.902344 " fill-opacity="1" fill-rule="nonzero"/></g><g clip-path="url(#c2fb5f59aa)"><path fill="#da8b79" d="M 206.558594 329.152344 C 206.558594 325.941406 203.929688 323.316406 200.71875 323.316406 L 186.609375 323.316406 C 183.398438 323.316406 180.773438 325.941406 180.773438 329.152344 L 180.773438 335.210938 C 180.773438 338.421875 178.261719 341.820312 175.191406 342.765625 L 162.636719 347.933594 C 159.808594 349.453125 155.636719 348.835938 153.371094 346.570312 L 149.078125 342.28125 C 146.808594 340.011719 143.097656 340.007812 140.824219 342.28125 L 130.847656 352.257812 C 128.578125 354.527344 128.578125 358.242188 130.847656 360.511719 L 135.136719 364.800781 C 137.40625 367.074219 138.019531 371.246094 136.5 374.074219 L 131.332031 386.625 C 130.386719 389.695312 126.988281 392.203125 123.777344 392.203125 L 117.71875 392.203125 C 114.507812 392.203125 111.882812 394.832031 111.882812 398.039062 L 111.882812 412.152344 C 111.882812 415.363281 114.507812 417.988281 117.71875 417.988281 L 123.777344 417.988281 C 126.988281 417.988281 130.386719 420.5 131.332031 423.566406 L 136.5 436.121094 C 138.019531 438.949219 137.40625 443.121094 135.136719 445.390625 L 130.84375 449.679688 C 128.574219 451.949219 128.574219 455.664062 130.84375 457.933594 L 140.824219 467.910156 C 143.09375 470.183594 146.808594 470.183594 149.078125 467.910156 L 153.367188 463.621094 C 155.636719 461.351562 159.808594 460.738281 162.636719 462.253906 L 175.191406 467.425781 C 178.261719 468.367188 180.769531 471.769531 180.769531 474.976562 L 180.769531 481.035156 C 180.769531 484.246094 183.394531 486.871094 186.605469 486.871094 L 200.71875 486.871094 C 203.929688 486.871094 206.558594 484.246094 206.558594 481.035156 L 206.558594 474.976562 C 206.558594 471.769531 209.066406 468.367188 212.132812 467.425781 L 224.691406 462.253906 C 227.515625 460.734375 231.691406 461.347656 233.957031 463.617188 L 238.25 467.910156 C 240.519531 470.179688 244.234375 470.179688 246.503906 467.910156 L 256.480469 457.933594 C 258.75 455.664062 258.75 451.949219 256.480469 449.679688 L 252.191406 445.386719 C 249.921875 443.117188 249.304688 438.945312 250.824219 436.117188 L 255.996094 423.566406 C 256.941406 420.496094 260.335938 417.988281 263.550781 417.988281 L 269.609375 417.988281 C 272.820312 417.988281 275.445312 415.359375 275.445312 412.152344 L 275.445312 398.039062 C 275.445312 394.828125 272.820312 392.203125 269.609375 392.203125 L 263.546875 392.203125 C 260.335938 392.203125 256.941406 389.691406 255.996094 386.625 L 250.824219 374.070312 C 249.304688 371.242188 249.917969 367.070312 252.191406 364.800781 L 256.480469 360.507812 C 258.75 358.238281 258.75 354.523438 256.480469 352.257812 L 246.503906 342.277344 C 244.234375 340.007812 240.519531 340.007812 238.25 342.277344 L 233.957031 346.566406 C 231.6875 348.835938 227.515625 349.449219 224.6875 347.933594 L 212.132812 342.765625 C 209.066406 341.820312 206.558594 338.421875 206.558594 335.210938 Z M 227.308594 405.097656 C 227.308594 423.679688 212.246094 438.742188 193.664062 438.742188 C 175.082031 438.742188 160.015625 423.679688 160.015625 405.097656 C 160.015625 386.515625 175.082031 371.449219 193.664062 371.449219 C 212.246094 371.449219 227.308594 386.515625 227.308594 405.097656 Z M 227.308594 405.097656 " fill-opacity="1" fill-rule="nonzero"/></g><g clip-path="url(#89d11946d5)"><path fill="#da8b79" d="M 191.316406 373.230469 C 194.097656 373.230469 196.375 370.957031 196.375 368.175781 L 196.375 355.949219 C 196.375 353.171875 194.097656 350.894531 191.316406 350.894531 L 186.066406 350.894531 C 183.289062 350.894531 180.34375 348.71875 179.527344 346.0625 L 175.046875 335.1875 C 173.730469 332.734375 174.265625 329.121094 176.230469 327.15625 L 179.945312 323.441406 C 181.910156 321.476562 181.914062 318.257812 179.945312 316.289062 L 171.300781 307.648438 C 169.335938 305.679688 166.117188 305.679688 164.152344 307.648438 L 160.433594 311.363281 C 158.46875 313.328125 154.851562 313.859375 152.402344 312.542969 L 141.527344 308.066406 C 138.871094 307.25 136.699219 304.304688 136.699219 301.523438 L 136.699219 296.273438 C 136.699219 293.492188 134.421875 291.21875 131.640625 291.21875 L 119.417969 291.21875 C 116.636719 291.21875 114.359375 293.492188 114.359375 296.273438 L 114.359375 301.523438 C 114.359375 304.304688 112.183594 307.25 109.527344 308.066406 L 98.652344 312.542969 C 96.203125 313.859375 92.589844 313.328125 90.625 311.363281 L 86.910156 307.644531 C 84.941406 305.679688 81.722656 305.679688 79.757812 307.644531 L 71.113281 316.289062 C 69.148438 318.257812 69.148438 321.472656 71.113281 323.441406 L 74.832031 327.15625 C 76.796875 329.121094 77.328125 332.734375 76.015625 335.1875 L 71.535156 346.0625 C 70.71875 348.71875 67.773438 350.894531 64.992188 350.894531 L 59.746094 350.894531 C 56.964844 350.894531 54.6875 353.167969 54.6875 355.949219 L 54.6875 368.175781 C 54.6875 370.957031 56.964844 373.230469 59.746094 373.230469 L 64.992188 373.230469 C 67.773438 373.230469 70.71875 375.40625 71.535156 378.0625 L 76.015625 388.941406 C 77.332031 391.390625 76.800781 395.003906 74.832031 396.96875 L 71.117188 400.6875 C 69.148438 402.652344 69.148438 405.871094 71.117188 407.835938 L 79.757812 416.480469 C 81.722656 418.445312 84.941406 418.445312 86.910156 416.480469 L 90.625 412.761719 C 92.59375 410.796875 96.207031 410.265625 98.65625 411.582031 L 109.53125 416.0625 C 112.1875 416.878906 114.363281 419.820312 114.363281 422.601562 L 114.363281 427.851562 C 114.363281 430.632812 116.636719 432.910156 119.417969 432.910156 L 131.644531 432.910156 C 134.421875 432.910156 136.699219 430.632812 136.699219 427.851562 L 136.699219 422.601562 C 136.699219 419.820312 138.871094 416.878906 141.53125 416.058594 L 152.40625 411.582031 C 154.855469 410.265625 158.46875 410.796875 160.433594 412.761719 L 164.152344 416.480469 C 166.121094 418.445312 169.339844 418.445312 171.304688 416.480469 L 179.945312 407.835938 C 181.914062 405.871094 181.914062 402.652344 179.945312 400.6875 L 176.230469 396.96875 C 174.265625 395.003906 173.734375 391.386719 175.046875 388.9375 L 179.527344 378.0625 C 180.34375 375.40625 183.289062 373.230469 186.070312 373.230469 Z M 125.527344 391.210938 C 109.433594 391.210938 96.382812 378.160156 96.382812 362.0625 C 96.382812 345.964844 109.433594 332.917969 125.527344 332.917969 C 141.625 332.917969 154.675781 345.964844 154.675781 362.0625 C 154.675781 378.160156 141.625 391.210938 125.527344 391.210938 Z M 125.527344 391.210938 " fill-opacity="1" fill-rule="nonzero"/></g><g clip-path="url(#1232a8b680)"><path fill="#da8b79" d="M 59.902344 346.917969 C 57.121094 346.917969 54.84375 349.191406 54.84375 351.972656 L 54.84375 364.199219 C 54.84375 366.980469 57.121094 369.253906 59.902344 369.253906 L 65.152344 369.253906 C 67.929688 369.253906 70.875 371.429688 71.691406 374.089844 L 76.171875 384.964844 C 77.488281 387.414062 76.953125 391.027344 74.988281 392.992188 L 71.273438 396.707031 C 69.308594 398.675781 69.304688 401.894531 71.273438 403.859375 L 79.917969 412.503906 C 81.882812 414.46875 85.101562 414.46875 87.066406 412.503906 L 90.785156 408.789062 C 92.75 406.820312 96.367188 406.289062 98.8125 407.605469 L 109.691406 412.082031 C 112.347656 412.902344 114.519531 415.84375 114.519531 418.625 L 114.519531 423.875 C 114.519531 426.65625 116.796875 428.929688 119.578125 428.929688 L 131.800781 428.929688 C 134.582031 428.929688 136.859375 426.65625 136.859375 423.875 L 136.859375 418.625 C 136.859375 415.84375 139.035156 412.902344 141.691406 412.082031 L 152.566406 407.605469 C 155.015625 406.289062 158.628906 406.820312 160.59375 408.789062 L 164.308594 412.503906 C 166.277344 414.472656 169.496094 414.472656 171.460938 412.503906 L 180.105469 403.859375 C 182.070312 401.894531 182.070312 398.675781 180.105469 396.710938 L 176.386719 392.996094 C 174.421875 391.027344 173.890625 387.414062 175.203125 384.964844 L 179.683594 374.089844 C 180.5 371.429688 183.445312 369.257812 186.226562 369.257812 L 191.472656 369.257812 C 194.253906 369.257812 196.53125 366.980469 196.53125 364.199219 L 196.53125 351.972656 C 196.53125 349.191406 194.253906 346.917969 191.472656 346.917969 L 186.226562 346.917969 C 183.445312 346.917969 180.5 344.742188 179.683594 342.085938 L 175.203125 331.210938 C 173.886719 328.761719 174.417969 325.144531 176.386719 323.179688 L 180.101562 319.464844 C 182.070312 317.496094 182.070312 314.28125 180.101562 312.3125 L 171.460938 303.671875 C 169.496094 301.703125 166.277344 301.703125 164.308594 303.671875 L 160.59375 307.386719 C 158.625 309.351562 155.011719 309.886719 152.5625 308.570312 L 141.6875 304.089844 C 139.03125 303.273438 136.855469 300.328125 136.855469 297.546875 L 136.855469 292.296875 C 136.855469 289.515625 134.582031 287.242188 131.800781 287.242188 L 119.574219 287.242188 C 116.792969 287.242188 114.519531 289.515625 114.519531 292.296875 L 114.519531 297.550781 C 114.519531 300.328125 112.34375 303.273438 109.6875 304.089844 L 98.8125 308.570312 C 96.363281 309.886719 92.75 309.355469 90.785156 307.386719 L 87.066406 303.671875 C 85.097656 301.703125 81.878906 301.703125 79.914062 303.671875 L 71.273438 312.3125 C 69.304688 314.277344 69.304688 317.496094 71.273438 319.464844 L 74.988281 323.179688 C 76.953125 325.148438 77.484375 328.761719 76.171875 331.210938 L 71.691406 342.085938 C 70.875 344.742188 67.929688 346.917969 65.148438 346.917969 Z M 125.691406 328.941406 C 141.785156 328.941406 154.835938 341.992188 154.835938 358.085938 C 154.835938 374.183594 141.785156 387.234375 125.691406 387.234375 C 109.59375 387.234375 96.542969 374.183594 96.542969 358.085938 C 96.542969 341.992188 109.59375 328.941406 125.691406 328.941406 Z M 125.691406 328.941406 " fill-opacity="1" fill-rule="nonzero"/></g><g clip-path="url(#07507fe13f)"><path fill="#cf5549" d="M 196.46875 387.871094 L 196.46875 499.988281 C 196.46875 510.902344 188.480469 519.121094 178.496094 519.121094 L 45.242188 519.121094 C 28.757812 519.121094 21.464844 512.0625 21.464844 491.167969 L 21.464844 410.625 L 44.542969 410.625 L 44.542969 387.875 L 196.460938 387.875 Z M 44.550781 421.628906 L 32.476562 421.628906 L 32.476562 491.164062 C 32.476562 501.84375 35.03125 506.953125 38.28125 506.953125 C 42.230469 506.953125 44.550781 501.84375 44.550781 491.164062 Z M 185.460938 398.878906 L 55.554688 398.878906 L 55.554688 491.164062 C 55.554688 498.59375 54.160156 503.929688 52.074219 508.109375 L 178.5 508.109375 C 182.679688 508.109375 185.464844 503.234375 185.464844 499.984375 Z M 106.53125 444.515625 L 74.3125 444.515625 L 74.3125 440.335938 L 106.53125 440.335938 Z M 106.53125 458.210938 L 74.3125 458.210938 L 74.3125 454.03125 L 106.53125 454.03125 Z M 106.53125 471.445312 L 74.3125 471.445312 L 74.3125 467.265625 L 106.53125 467.265625 Z M 106.53125 484.210938 L 74.3125 484.210938 L 74.3125 480.03125 L 106.53125 480.03125 Z M 81.460938 418.746094 L 158.765625 418.746094 L 158.765625 426.488281 L 81.460938 426.488281 Z M 118.140625 440.335938 L 167.585938 440.335938 L 167.585938 479.820312 L 118.140625 479.820312 Z M 118.140625 440.335938 " fill-opacity="1" fill-rule="nonzero"/></g><g fill="#343637" fill-opacity="1"><g transform="translate(309.755906, 487.59149)"><g><path d="M 68.609375 2.21875 C 60.054688 2.21875 52.085938 1.1875 44.703125 -0.875 C 37.328125 -2.945312 30.875 -6.007812 25.34375 -10.0625 C 19.8125 -14.125 15.347656 -19.21875 11.953125 -25.34375 C 8.554688 -31.46875 6.414062 -38.515625 5.53125 -46.484375 L 38.734375 -46.484375 C 39.910156 -40.285156 43.082031 -35.414062 48.25 -31.875 C 53.414062 -28.332031 60.203125 -26.5625 68.609375 -26.5625 C 79.085938 -26.5625 86.503906 -28.296875 90.859375 -31.765625 C 95.210938 -35.234375 97.390625 -39.769531 97.390625 -45.375 C 97.390625 -49.207031 96.132812 -52.265625 93.625 -54.546875 C 91.113281 -56.835938 87.863281 -58.6875 83.875 -60.09375 C 79.894531 -61.5 75.320312 -62.679688 70.15625 -63.640625 C 65 -64.597656 59.691406 -65.703125 54.234375 -66.953125 C 48.773438 -68.210938 43.460938 -69.800781 38.296875 -71.71875 C 33.128906 -73.632812 28.550781 -76.25 24.5625 -79.5625 C 20.582031 -82.882812 17.335938 -87.128906 14.828125 -92.296875 C 12.316406 -97.460938 11.0625 -103.957031 11.0625 -111.78125 C 11.0625 -119.300781 12.535156 -125.863281 15.484375 -131.46875 C 18.441406 -137.082031 22.539062 -141.804688 27.78125 -145.640625 C 33.019531 -149.484375 39.140625 -152.363281 46.140625 -154.28125 C 53.148438 -156.195312 60.640625 -157.15625 68.609375 -157.15625 C 78.054688 -157.15625 86.320312 -156.007812 93.40625 -153.71875 C 100.488281 -151.4375 106.460938 -148.226562 111.328125 -144.09375 C 116.203125 -139.957031 120.039062 -135.125 122.84375 -129.59375 C 125.644531 -124.0625 127.488281 -118.125 128.375 -111.78125 L 95.171875 -111.78125 C 93.992188 -116.789062 91.265625 -120.804688 86.984375 -123.828125 C 82.703125 -126.859375 76.945312 -128.375 69.71875 -128.375 C 61.3125 -128.375 55.148438 -126.710938 51.234375 -123.390625 C 47.328125 -120.078125 45.375 -116.207031 45.375 -111.78125 C 45.375 -107.789062 46.628906 -104.578125 49.140625 -102.140625 C 51.648438 -99.710938 54.894531 -97.722656 58.875 -96.171875 C 62.863281 -94.617188 67.4375 -93.289062 72.59375 -92.1875 C 77.757812 -91.082031 83.070312 -89.863281 88.53125 -88.53125 C 94 -87.207031 99.3125 -85.585938 104.46875 -83.671875 C 109.632812 -81.753906 114.207031 -79.171875 118.1875 -75.921875 C 122.175781 -72.671875 125.425781 -68.609375 127.9375 -63.734375 C 130.445312 -58.867188 131.703125 -52.75 131.703125 -45.375 C 131.703125 -38.738281 130.335938 -32.539062 127.609375 -26.78125 C 124.878906 -21.03125 120.859375 -15.976562 115.546875 -11.625 C 110.234375 -7.269531 103.628906 -3.875 95.734375 -1.4375 C 87.835938 1 78.796875 2.21875 68.609375 2.21875 Z M 68.609375 2.21875 "/></g></g></g><g fill="#343637" fill-opacity="1"><g transform="translate(448.096463, 487.59149)"><g><path d="M 79.6875 2.21875 C 69.644531 2.21875 60.601562 0.671875 52.5625 -2.421875 C 44.519531 -5.523438 37.695312 -10.03125 32.09375 -15.9375 C 26.488281 -21.84375 22.132812 -29.035156 19.03125 -37.515625 C 15.9375 -46.003906 14.390625 -55.632812 14.390625 -66.40625 L 14.390625 -154.9375 L 47.59375 -154.9375 L 47.59375 -66.40625 C 47.59375 -53.5625 50.578125 -43.894531 56.546875 -37.40625 C 62.523438 -30.914062 70.238281 -27.671875 79.6875 -27.671875 C 89.125 -27.671875 96.832031 -30.914062 102.8125 -37.40625 C 108.789062 -43.894531 111.78125 -53.5625 111.78125 -66.40625 L 111.78125 -154.9375 L 144.984375 -154.9375 L 144.984375 -66.40625 C 144.984375 -55.632812 143.429688 -46.003906 140.328125 -37.515625 C 137.234375 -29.035156 132.878906 -21.84375 127.265625 -15.9375 C 121.660156 -10.03125 114.800781 -5.523438 106.6875 -2.421875 C 98.570312 0.671875 89.570312 2.21875 79.6875 2.21875 Z M 79.6875 2.21875 "/></g></g></g><g fill="#343637" fill-opacity="1"><g transform="translate(607.464768, 487.59149)"><g><path d="M 15.5 -154.9375 L 64.1875 -154.9375 L 100.71875 -47.59375 L 101.8125 -47.59375 L 138.34375 -154.9375 L 187.03125 -154.9375 L 187.03125 0 L 153.828125 0 L 153.828125 -109.5625 L 152.734375 -109.5625 L 115.09375 0 L 87.4375 0 L 49.796875 -109.5625 L 48.703125 -109.5625 L 48.703125 0 L 15.5 0 Z M 15.5 -154.9375 "/></g></g></g></svg>